<svg id="Layer_1" data-name="Layer 1" xmlns="http://www.w3.org/2000/svg" viewBox="0 0 334.23 124"><defs><style>.cls-1{fill:#db7758;}.cls-2{fill:#eebf9c;}.cls-3{fill:#fff;}.cls-4{fill:#d3e2f3;}.cls-5{fill:#5d846d;}.cls-6{fill:#2e2d2b;}.cls-7{fill:#f8ac9a;}.cls-8{fill:#f6e1d8;}.cls-9{fill:#e3effa;}.cls-10{fill:#a0b3d8;}.cls-11{fill:#edeeef;}.cls-12{fill:#afb0b3;}</style></defs><g id="Group_188" data-name="Group 188"><path id="Path_129" data-name="Path 129" class="cls-1" d="M162.4,594.84H134.54a6.07,6.07,0,0,0-6.07,6.07v27.85a6.08,6.08,0,0,0,6.07,6.08H162.4a6.08,6.08,0,0,0,6.07-6.08h0V600.91a6.07,6.07,0,0,0-6.07-6.07m-20.21,31.1h-5.67V609.49h5.67Zm-2.81-19a2.84,2.84,0,0,1-2.9-2.8v0a2.89,2.89,0,1,1,2.94,2.84h0m21.89,18.53c0,.15,0,.31-.05.47h-4.9v-.7c0-2.52,0-5,0-7.55a9.25,9.25,0,0,0-.36-2.45,2.33,2.33,0,0,0-2.43-1.73,2.52,2.52,0,0,0-2.69,1.58,8.19,8.19,0,0,0-.42,2.5c-.05,2.51,0,5,0,7.55v.77h-4.77V609.48h4.53v2.19c2-2.42,4.46-2.46,7.07-2a4.34,4.34,0,0,1,3.67,3.55,14.94,14.94,0,0,1,.37,3.12c.05,3,0,6.08,0,9.13" transform="translate(-128.24 -552.84)"/></g><path class="cls-1" d="M184.25,604a2.91,2.91,0,0,1-2.84,2.94h-.09a2.86,2.86,0,0,1-2.84-2.81.06.06,0,0,0,0,0,2.89,2.89,0,0,1,5.78-.09Z" transform="translate(-128.24 -552.84)"/><rect class="cls-1" x="50.28" y="56.65" width="5.67" height="16.45"/><path class="cls-1" d="M203.28,625.48c0,.15,0,.32-.05.47h-4.91v-.7c0-2.51,0-5,0-7.55a8.79,8.79,0,0,0-.36-2.44,2.33,2.33,0,0,0-2.42-1.74,2.54,2.54,0,0,0-2.7,1.58,8.73,8.73,0,0,0-.42,2.5c-.05,2.51,0,5,0,7.55v.77h-4.77V609.48h4.52v2.2c2-2.43,4.47-2.47,7.07-2a4.37,4.37,0,0,1,3.68,3.57,15.46,15.46,0,0,1,.37,3.11C203.31,619.39,203.28,622.44,203.28,625.48Z" transform="translate(-128.24 -552.84)"/><path class="cls-2" d="M204.41,594.84H176.55a6.08,6.08,0,0,0-6.08,6.07v27.85a6.08,6.08,0,0,0,6.08,6.08h27.86a6.07,6.07,0,0,0,6.06-6.08V600.91A6.07,6.07,0,0,0,204.41,594.84Zm-1.13,30.64c0,.15,0,.32-.05.47h-4.91v-.7c0-2.51,0-5,0-7.55a8.79,8.79,0,0,0-.36-2.44,2.33,2.33,0,0,0-2.42-1.74,2.54,2.54,0,0,0-2.7,1.58,8.73,8.73,0,0,0-.42,2.5c-.05,2.51,0,5,0,7.55v.77h-4.77V609.48h4.52v2.2c2-2.43,4.47-2.47,7.07-2a4.37,4.37,0,0,1,3.68,3.57,15.46,15.46,0,0,1,.37,3.11C203.31,619.39,203.28,622.44,203.28,625.48Zm-22-24.3a2.89,2.89,0,0,1,.09,5.78h-.09a2.86,2.86,0,0,1-2.84-2.81.06.06,0,0,0,0,0A2.9,2.9,0,0,1,181.32,601.18Zm2.88,8.31v16.45h-5.67V609.49Z" transform="translate(-128.24 -552.84)"/><g id="Group_188-2" data-name="Group 188"><path id="Path_129-2" data-name="Path 129" class="cls-3" d="M246.4,594.84H218.54a6.07,6.07,0,0,0-6.07,6.07v27.86a6.07,6.07,0,0,0,6.07,6.07H246.4a6.07,6.07,0,0,0,6.07-6.07h0V600.91a6.07,6.07,0,0,0-6.07-6.07m-20.21,31.1h-5.67V609.49h5.67Zm-2.81-19a2.84,2.84,0,0,1-2.9-2.8v0a2.89,2.89,0,1,1,2.93,2.84h0m21.89,18.53c0,.15,0,.31-.05.47h-4.9v-.7c0-2.52,0-5,0-7.55a9.25,9.25,0,0,0-.36-2.45,2.33,2.33,0,0,0-2.43-1.73,2.52,2.52,0,0,0-2.69,1.58,8.51,8.51,0,0,0-.42,2.5c-.05,2.51,0,5,0,7.55v.77h-4.77V609.48h4.53v2.19c2-2.42,4.46-2.46,7.07-2a4.33,4.33,0,0,1,3.67,3.55,15.65,15.65,0,0,1,.38,3.12c0,3,0,6.08,0,9.13" transform="translate(-128.24 -552.84)"/></g><path class="cls-3" d="M268.25,604a2.91,2.91,0,0,1-2.84,2.94h-.09a2.84,2.84,0,0,1-2.83-2.81.06.06,0,0,0,0,0,2.89,2.89,0,0,1,5.77-.09Z" transform="translate(-128.24 -552.84)"/><rect class="cls-3" x="134.29" y="56.65" width="5.67" height="16.45"/><path class="cls-3" d="M287.28,625.48c0,.15,0,.32,0,.47h-4.91v-.7c0-2.51,0-5,0-7.55a8.79,8.79,0,0,0-.36-2.44,2.33,2.33,0,0,0-2.42-1.74,2.54,2.54,0,0,0-2.7,1.58,9.09,9.09,0,0,0-.42,2.5c0,2.51,0,5,0,7.55v.77h-4.77V609.48h4.52v2.2c2-2.43,4.47-2.47,7.08-2a4.37,4.37,0,0,1,3.67,3.57,15.46,15.46,0,0,1,.37,3.11C287.31,619.39,287.28,622.44,287.28,625.48Z" transform="translate(-128.24 -552.84)"/><path class="cls-4" d="M288.41,594.84H260.55a6.08,6.08,0,0,0-6.08,6.07v27.85a6.08,6.08,0,0,0,6.08,6.08h27.86a6.07,6.07,0,0,0,6.06-6.08V600.91A6.07,6.07,0,0,0,288.41,594.84Zm-1.13,30.64c0,.15,0,.32,0,.47h-4.91v-.7c0-2.51,0-5,0-7.55a8.79,8.79,0,0,0-.36-2.44,2.33,2.33,0,0,0-2.42-1.74,2.54,2.54,0,0,0-2.7,1.58,9.09,9.09,0,0,0-.42,2.5c0,2.51,0,5,0,7.55v.77h-4.77V609.48h4.52v2.2c2-2.43,4.47-2.47,7.08-2a4.37,4.37,0,0,1,3.67,3.57,15.46,15.46,0,0,1,.37,3.11C287.31,619.39,287.28,622.44,287.28,625.48Zm-22-24.3a2.89,2.89,0,0,1,.09,5.78h-.09a2.84,2.84,0,0,1-2.83-2.81.06.06,0,0,0,0,0A2.9,2.9,0,0,1,265.32,601.18Zm2.88,8.31v16.45h-5.67V609.49Z" transform="translate(-128.24 -552.84)"/><path class="cls-1" d="M352.26,604a2.92,2.92,0,0,1-2.85,2.94h-.09a2.84,2.84,0,0,1-2.83-2.81.06.06,0,0,0,0,0,2.89,2.89,0,0,1,5.78-.09Z" transform="translate(-128.24 -552.84)"/><rect class="cls-1" x="218.29" y="56.65" width="5.67" height="16.45"/><path class="cls-1" d="M371.28,625.48c0,.15,0,.32,0,.47h-4.91v-.7c0-2.51,0-5,0-7.55a8.79,8.79,0,0,0-.36-2.44,2.32,2.32,0,0,0-2.42-1.74,2.54,2.54,0,0,0-2.7,1.58,9.09,9.09,0,0,0-.42,2.5c0,2.51,0,5,0,7.55v.77h-4.77V609.48h4.53v2.2c2-2.43,4.46-2.47,7.07-2a4.37,4.37,0,0,1,3.67,3.57,14.77,14.77,0,0,1,.37,3.11C371.31,619.39,371.28,622.44,371.28,625.48Z" transform="translate(-128.24 -552.84)"/><path class="cls-2" d="M372.41,594.84H344.55a6.08,6.08,0,0,0-6.08,6.07v27.85a6.08,6.08,0,0,0,6.08,6.08h27.86a6.07,6.07,0,0,0,6.06-6.08V600.91A6.07,6.07,0,0,0,372.41,594.84Zm-1.13,30.64c0,.15,0,.32,0,.47h-4.91v-.7c0-2.51,0-5,0-7.55a8.79,8.79,0,0,0-.36-2.44,2.32,2.32,0,0,0-2.42-1.74,2.54,2.54,0,0,0-2.7,1.58,9.09,9.09,0,0,0-.42,2.5c0,2.51,0,5,0,7.55v.77h-4.77V609.48h4.53v2.2c2-2.43,4.46-2.47,7.07-2a4.37,4.37,0,0,1,3.67,3.57,14.77,14.77,0,0,1,.37,3.11C371.31,619.39,371.28,622.44,371.28,625.48Zm-22-24.3a2.89,2.89,0,1,1,.09,5.78h-.09a2.84,2.84,0,0,1-2.83-2.81.06.06,0,0,0,0,0A2.9,2.9,0,0,1,349.32,601.18Zm2.88,8.31v16.45h-5.67V609.49Z" transform="translate(-128.24 -552.84)"/><g id="Group_188-3" data-name="Group 188"><path id="Path_129-3" data-name="Path 129" class="cls-3" d="M330.4,594.84H302.54a6.07,6.07,0,0,0-6.07,6.07v27.86a6.07,6.07,0,0,0,6.07,6.07H330.4a6.07,6.07,0,0,0,6.07-6.07h0V600.91a6.07,6.07,0,0,0-6.07-6.07m-20.21,31.1h-5.67V609.49h5.67Zm-2.81-19a2.85,2.85,0,0,1-2.9-2.8v0a2.89,2.89,0,1,1,2.93,2.84h0m21.89,18.53a4,4,0,0,1,0,.47h-4.9v-.7c0-2.52,0-5,0-7.55a9.25,9.25,0,0,0-.36-2.45,2.31,2.31,0,0,0-2.42-1.73,2.53,2.53,0,0,0-2.7,1.58,8.85,8.85,0,0,0-.42,2.5c0,2.51,0,5,0,7.55v.77h-4.77V609.48h4.53v2.19c2-2.42,4.47-2.46,7.07-2a4.33,4.33,0,0,1,3.67,3.55,15,15,0,0,1,.38,3.12c.05,3,0,6.08,0,9.13" transform="translate(-128.24 -552.84)"/></g><path class="cls-5" d="M436.26,604a2.91,2.91,0,0,1-2.85,2.94h-.09a2.84,2.84,0,0,1-2.83-2.81.06.06,0,0,0,0,0,2.89,2.89,0,0,1,5.78-.09Z" transform="translate(-128.24 -552.84)"/><rect class="cls-5" x="302.29" y="56.65" width="5.67" height="16.45"/><path class="cls-5" d="M455.28,625.48c0,.15,0,.32,0,.47h-4.9v-.7c0-2.51,0-5,0-7.55a9.6,9.6,0,0,0-.36-2.44,2.33,2.33,0,0,0-2.43-1.74,2.53,2.53,0,0,0-2.69,1.58,9.1,9.1,0,0,0-.43,2.5c0,2.51,0,5,0,7.55v.77h-4.77V609.48h4.53v2.2c2-2.43,4.46-2.47,7.07-2a4.36,4.36,0,0,1,3.67,3.57,14.77,14.77,0,0,1,.37,3.11C455.31,619.39,455.28,622.44,455.28,625.48Z" transform="translate(-128.24 -552.84)"/><path class="cls-6" d="M456.41,594.84H428.55a6.07,6.07,0,0,0-6.07,6.07v27.85a6.07,6.07,0,0,0,6.07,6.08h27.86a6.08,6.08,0,0,0,6.07-6.08V600.91A6.07,6.07,0,0,0,456.41,594.84Zm-1.13,30.64c0,.15,0,.32,0,.47h-4.9v-.7c0-2.51,0-5,0-7.55a9.6,9.6,0,0,0-.36-2.44,2.33,2.33,0,0,0-2.43-1.74,2.53,2.53,0,0,0-2.69,1.58,9.1,9.1,0,0,0-.43,2.5c0,2.51,0,5,0,7.55v.77h-4.77V609.48h4.53v2.2c2-2.43,4.46-2.47,7.07-2a4.36,4.36,0,0,1,3.67,3.57,14.77,14.77,0,0,1,.37,3.11C455.31,619.39,455.28,622.44,455.28,625.48Zm-22-24.3a2.89,2.89,0,1,1,.09,5.78h-.09a2.84,2.84,0,0,1-2.83-2.81.06.06,0,0,0,0,0A2.9,2.9,0,0,1,433.32,601.18Zm2.89,8.31v16.45h-5.68V609.49Z" transform="translate(-128.24 -552.84)"/><g id="Group_188-4" data-name="Group 188"><path id="Path_129-4" data-name="Path 129" class="cls-3" d="M414.4,594.84H386.55a6.06,6.06,0,0,0-6.07,6.07v27.86a6.07,6.07,0,0,0,6.07,6.07H414.4a6.07,6.07,0,0,0,6.07-6.07h0V600.91a6.06,6.06,0,0,0-6.07-6.07m-20.2,31.1h-5.68V609.49h5.68Zm-2.82-19a2.85,2.85,0,0,1-2.9-2.8v0a2.89,2.89,0,1,1,2.93,2.84h0m21.89,18.53a2.59,2.59,0,0,1,0,.47h-4.9v-.7c0-2.52,0-5,0-7.55a10.15,10.15,0,0,0-.36-2.45,2.33,2.33,0,0,0-2.43-1.73,2.51,2.51,0,0,0-2.69,1.58,8.52,8.52,0,0,0-.43,2.5c0,2.51,0,5,0,7.55v.77h-4.77V609.48h4.53v2.19c2-2.42,4.46-2.46,7.06-2a4.35,4.35,0,0,1,3.68,3.55,15.64,15.64,0,0,1,.37,3.12c.05,3,0,6.08,0,9.13" transform="translate(-128.24 -552.84)"/></g><path id="Path_130" data-name="Path 130" class="cls-7" d="M162.4,636.84H134.54a6.07,6.07,0,0,0-6.07,6.07v27.85a6.08,6.08,0,0,0,6.07,6.08H162.4a6.08,6.08,0,0,0,6.07-6.08h0V642.91a6.07,6.07,0,0,0-6.07-6.07m-7.19,19.92h-4.56v15.4h-6.14V656.8h-3v-6.17h3c0-.93,0-1.79,0-2.65a11.79,11.79,0,0,1,.25-2.13,5.42,5.42,0,0,1,5.08-4.37c1.93-.12,3.87,0,5.85,0v5.21h-3.11c-1.19,0-1.65.45-1.66,1.63,0,.72,0,1.43,0,2.15,0,0,0,.07.08.16h4.8l-.56,6.16" transform="translate(-128.24 -552.84)"/><path class="cls-7" d="M197.77,650.6l-.56,6.16h-4.55v15.4h-6.15V656.81h-3.06v-6.18h3c0-.94,0-1.79,0-2.65a12.4,12.4,0,0,1,.24-2.12,5.44,5.44,0,0,1,5.09-4.38c1.93-.12,3.87,0,5.85,0v5.22h-3.11c-1.2,0-1.66.44-1.67,1.62,0,.72,0,1.43,0,2.15,0,0,0,.07.08.16Z" transform="translate(-128.24 -552.84)"/><path class="cls-8" d="M204.4,636.84H176.55a6.08,6.08,0,0,0-6.08,6.07v27.85a6.08,6.08,0,0,0,6.08,6.08H204.4a6.08,6.08,0,0,0,6.07-6.08V642.91A6.07,6.07,0,0,0,204.4,636.84Zm-7.19,19.92h-4.55v15.4h-6.15V656.81h-3.06v-6.18h3c0-.94,0-1.79,0-2.65a12.4,12.4,0,0,1,.24-2.12,5.44,5.44,0,0,1,5.09-4.38c1.93-.12,3.87,0,5.85,0v5.22h-3.11c-1.2,0-1.66.44-1.67,1.62,0,.72,0,1.43,0,2.15,0,0,0,.07.08.16h4.8Z" transform="translate(-128.24 -552.84)"/><path id="Path_130-2" data-name="Path 130" class="cls-4" d="M246.4,636.84H218.54a6.07,6.07,0,0,0-6.07,6.07v27.86a6.07,6.07,0,0,0,6.07,6.07H246.4a6.07,6.07,0,0,0,6.07-6.07h0V642.91a6.07,6.07,0,0,0-6.07-6.07m-7.18,19.92h-4.57v15.4h-6.14V656.8h-3v-6.17h3c0-.93,0-1.79,0-2.65a11.79,11.79,0,0,1,.25-2.13,5.43,5.43,0,0,1,5.09-4.37c1.92-.12,3.86,0,5.84,0v5.2h-3.1c-1.2,0-1.66.45-1.67,1.63,0,.72,0,1.43,0,2.15,0,0,0,.07.08.16h4.8l-.55,6.16" transform="translate(-128.24 -552.84)"/><path class="cls-9" d="M281.77,650.6l-.56,6.16h-4.55v15.4h-6.15V656.81h-3.06v-6.18h3c0-.94,0-1.79,0-2.65a11.48,11.48,0,0,1,.25-2.12,5.42,5.42,0,0,1,5.09-4.38c1.93-.12,3.86,0,5.85,0v5.22h-3.11c-1.2,0-1.67.44-1.68,1.62,0,.72,0,1.43,0,2.15,0,0,0,.07.09.16Z" transform="translate(-128.24 -552.84)"/><path class="cls-10" d="M288.4,636.84H260.55a6.08,6.08,0,0,0-6.08,6.07v27.85a6.08,6.08,0,0,0,6.08,6.08H288.4a6.08,6.08,0,0,0,6.07-6.08V642.91A6.07,6.07,0,0,0,288.4,636.84Zm-7.19,19.92h-4.55v15.4h-6.15V656.81h-3.06v-6.18h3c0-.94,0-1.79,0-2.65a11.48,11.48,0,0,1,.25-2.12,5.42,5.42,0,0,1,5.09-4.38c1.93-.12,3.86,0,5.85,0v5.22h-3.11c-1.2,0-1.67.44-1.68,1.62,0,.72,0,1.43,0,2.15,0,0,0,.07.09.16h4.79Z" transform="translate(-128.24 -552.84)"/><path class="cls-2" d="M365.77,650.6l-.55,6.16h-4.56v15.4h-6.15V656.81h-3.06v-6.18h3c0-.94,0-1.79,0-2.65a11.48,11.48,0,0,1,.25-2.12,5.42,5.42,0,0,1,5.09-4.38c1.93-.12,3.87,0,5.85,0v5.22h-3.11c-1.2,0-1.66.44-1.67,1.62,0,.72,0,1.43,0,2.15,0,0,0,.07.08.16Z" transform="translate(-128.24 -552.84)"/><path class="cls-1" d="M372.4,636.84H344.55a6.08,6.08,0,0,0-6.08,6.07v27.85a6.08,6.08,0,0,0,6.08,6.08H372.4a6.08,6.08,0,0,0,6.07-6.08V642.91A6.07,6.07,0,0,0,372.4,636.84Zm-7.18,19.92h-4.56v15.4h-6.15V656.81h-3.06v-6.18h3c0-.94,0-1.79,0-2.65a11.48,11.48,0,0,1,.25-2.12,5.42,5.42,0,0,1,5.09-4.38c1.93-.12,3.87,0,5.85,0v5.22h-3.11c-1.2,0-1.66.44-1.67,1.62,0,.72,0,1.43,0,2.15,0,0,0,.07.08.16h4.79Z" transform="translate(-128.24 -552.84)"/><path id="Path_130-3" data-name="Path 130" class="cls-11" d="M330.4,636.84H302.54a6.07,6.07,0,0,0-6.07,6.07v27.85a6.08,6.08,0,0,0,6.07,6.08H330.4a6.08,6.08,0,0,0,6.07-6.08h0V642.91a6.07,6.07,0,0,0-6.07-6.07m-7.18,19.92h-4.56v15.4h-6.14V656.8h-3.06v-6.17h3c0-.93,0-1.79,0-2.65a11.79,11.79,0,0,1,.25-2.13,5.44,5.44,0,0,1,5.09-4.37c1.92-.12,3.87,0,5.84,0v5.21h-3.1c-1.2,0-1.66.45-1.67,1.63,0,.72,0,1.43,0,2.15,0,0,0,.07.08.16h4.8l-.55,6.16" transform="translate(-128.24 -552.84)"/><path class="cls-5" d="M449.77,650.6l-.55,6.16h-4.56v15.4h-6.15V656.81h-3.05v-6.18h3c0-.94,0-1.79,0-2.65a12.4,12.4,0,0,1,.25-2.12,5.43,5.43,0,0,1,5.09-4.38c1.93-.12,3.87,0,5.85,0v5.22h-3.11c-1.2,0-1.66.44-1.67,1.62,0,.72,0,1.43,0,2.15,0,0,0,.07.08.16Z" transform="translate(-128.24 -552.84)"/><path class="cls-6" d="M456.4,636.84H428.55a6.07,6.07,0,0,0-6.07,6.07v27.85a6.07,6.07,0,0,0,6.07,6.08H456.4a6.08,6.08,0,0,0,6.08-6.08V642.91A6.08,6.08,0,0,0,456.4,636.84Zm-7.18,19.92h-4.56v15.4h-6.15V656.81h-3.05v-6.18h3c0-.94,0-1.79,0-2.65a12.4,12.4,0,0,1,.25-2.12,5.43,5.43,0,0,1,5.09-4.38c1.93-.12,3.87,0,5.85,0v5.22h-3.11c-1.2,0-1.66.44-1.67,1.62,0,.72,0,1.43,0,2.15,0,0,0,.07.08.16h4.79Z" transform="translate(-128.24 -552.84)"/><path id="Path_130-4" data-name="Path 130" class="cls-3" d="M414.4,636.84H386.55a6.07,6.07,0,0,0-6.08,6.07v27.85a6.08,6.08,0,0,0,6.08,6.08H414.4a6.07,6.07,0,0,0,6.07-6.08h0V642.91a6.06,6.06,0,0,0-6.07-6.07m-7.18,19.92h-4.56v15.4h-6.14V656.8h-3.06v-6.17h3c0-.93,0-1.79,0-2.65a11.79,11.79,0,0,1,.25-2.13,5.44,5.44,0,0,1,5.09-4.37c1.93-.12,3.87,0,5.85,0v5.21h-3.11c-1.2,0-1.66.45-1.67,1.63,0,.72,0,1.43,0,2.15,0,0,0,.07.08.16h4.79l-.55,6.16" transform="translate(-128.24 -552.84)"/><g id="Group_186" data-name="Group 186"><path id="Path_126" data-name="Path 126" class="cls-2" d="M156.45,561q-8.08,0-16.15,0a3.51,3.51,0,0,0-3.62,3.38,1.31,1.31,0,0,0,0,.28v16.21a3.52,3.52,0,0,0,3.35,3.7h16.38a3.54,3.54,0,0,0,3.66-3.41v-16.5A3.53,3.53,0,0,0,156.7,561h-.25m-8.07,19.17a7.39,7.39,0,1,1,7.36-7.41,7.38,7.38,0,0,1-7.36,7.41h0" transform="translate(-128.24 -552.84)"/><path id="Path_127" data-name="Path 127" class="cls-2" d="M148.37,567.8a5,5,0,1,0,5,5,4.95,4.95,0,0,0-5-5" transform="translate(-128.24 -552.84)"/><path id="Path_128" data-name="Path 128" class="cls-2" d="M168.23,586.75V558.9a6.06,6.06,0,0,0-6.07-6.06H134.31a6.06,6.06,0,0,0-6.07,6.06v27.85a6.07,6.07,0,0,0,6.07,6.07h27.85a6.07,6.07,0,0,0,6.07-6.07h0m-11.87.23h-16a6,6,0,0,1-6.16-5.83V564.69a6,6,0,0,1,6.11-6.17q8,0,16,0a6,6,0,0,1,6.12,5.8,2.16,2.16,0,0,1,0,.36q0,8.07,0,16.15a6,6,0,0,1-5.82,6.15h-.32" transform="translate(-128.24 -552.84)"/></g><path class="cls-8" d="M190.32,565.37a7.38,7.38,0,1,0,0,14.76h0a7.38,7.38,0,0,0-.05-14.76Zm.07,12.33a4.95,4.95,0,1,1,4.92-4.94A4.94,4.94,0,0,1,190.39,577.7Z" transform="translate(-128.24 -552.84)"/><path class="cls-8" d="M198.35,558.52q-8,0-16,0a6,6,0,0,0-6.11,6.18v16.46a6,6,0,0,0,6.16,5.82l8,0,8,0h.32a6,6,0,0,0,5.82-6.15q0-8.07,0-16.15v-.36A6,6,0,0,0,198.35,558.52Zm3.7,22.61a3.55,3.55,0,0,1-3.66,3.41H182a3.53,3.53,0,0,1-3.36-3.69V564.35a3.51,3.51,0,0,1,3.63-3.38q8.07,0,16.14,0h.26a3.52,3.52,0,0,1,3.37,3.66Z" transform="translate(-128.24 -552.84)"/><path class="cls-7" d="M202.05,572.77v-8.14a3.52,3.52,0,0,0-3.37-3.66h-.26q-8.07,0-16.14,0a3.5,3.5,0,0,0-3.62,3.38,2.61,2.61,0,0,0,0,.28v16.2a3.53,3.53,0,0,0,3.35,3.71h16.38a3.54,3.54,0,0,0,3.66-3.41v-8.36Zm-11.68,7.36h0a7.38,7.38,0,1,1,7.36-7.4A7.38,7.38,0,0,1,190.36,580.13Z" transform="translate(-128.24 -552.84)"/><path class="cls-7" d="M190.34,567.81a4.95,4.95,0,1,0,5,5A4.94,4.94,0,0,0,190.34,567.81Z" transform="translate(-128.24 -552.84)"/><path class="cls-7" d="M204.14,552.84H176.28a6.06,6.06,0,0,0-6.06,6.06v27.85a6.07,6.07,0,0,0,6.06,6.07h27.86a6.08,6.08,0,0,0,6.07-6.07V558.9A6.06,6.06,0,0,0,204.14,552.84Zm.34,11.84q0,8.09,0,16.15a6,6,0,0,1-5.82,6.15h-.32l-8,0-8,0a6,6,0,0,1-6.16-5.82V564.7a6,6,0,0,1,6.11-6.18q8,0,16,0a6,6,0,0,1,6.13,5.8Z" transform="translate(-128.24 -552.84)"/><g id="Group_186-2" data-name="Group 186"><path id="Path_126-2" data-name="Path 126" class="cls-10" d="M240.41,561H224.26a3.51,3.51,0,0,0-3.62,3.38v16.49a3.54,3.54,0,0,0,3.35,3.71h16.38a3.54,3.54,0,0,0,3.66-3.41v-16.5a3.52,3.52,0,0,0-3.37-3.66h-.25m-8.07,19.17a7.38,7.38,0,1,1,7.36-7.4,7.37,7.37,0,0,1-7.36,7.4h0" transform="translate(-128.24 -552.84)"/><path id="Path_127-2" data-name="Path 127" class="cls-10" d="M232.33,567.8a5,5,0,1,0,5,5,5,5,0,0,0-5-5" transform="translate(-128.24 -552.84)"/><path id="Path_128-2" data-name="Path 128" class="cls-10" d="M252.19,586.75V558.9a6.06,6.06,0,0,0-6.07-6.06H218.27a6.06,6.06,0,0,0-6.06,6.06v27.85a6.06,6.06,0,0,0,6.06,6.07h27.85a6.07,6.07,0,0,0,6.07-6.07h0m-11.87.23h-16a6,6,0,0,1-6.15-5.83,2.28,2.28,0,0,1,0-.37V564.69a6,6,0,0,1,6.11-6.17q8,0,16,0a6,6,0,0,1,6.12,5.8,2.16,2.16,0,0,1,0,.36q0,8.07,0,16.15a6,6,0,0,1-5.82,6.15h-.32" transform="translate(-128.24 -552.84)"/></g><path class="cls-10" d="M274.28,565.37a7.38,7.38,0,1,0,0,14.76h0a7.38,7.38,0,0,0-.05-14.76Zm.07,12.33a4.95,4.95,0,1,1,4.92-4.94A4.95,4.95,0,0,1,274.35,577.7Z" transform="translate(-128.24 -552.84)"/><path class="cls-10" d="M282.31,558.52q-8,0-16,0a6,6,0,0,0-6.1,6.18v16.46a6,6,0,0,0,6.16,5.82l8,0,8,0h.32a6,6,0,0,0,5.82-6.15q0-8.07,0-16.15v-.36A6,6,0,0,0,282.31,558.52Zm3.7,22.61a3.55,3.55,0,0,1-3.66,3.41H266a3.53,3.53,0,0,1-3.35-3.69V564.35a3.49,3.49,0,0,1,3.62-3.38q8.07,0,16.14,0h.26a3.52,3.52,0,0,1,3.37,3.66Z" transform="translate(-128.24 -552.84)"/><path class="cls-9" d="M286,572.77v-8.14a3.52,3.52,0,0,0-3.37-3.66h-.25q-8.07,0-16.15,0a3.5,3.5,0,0,0-3.62,3.38v16.48a3.53,3.53,0,0,0,3.35,3.71h16.38a3.54,3.54,0,0,0,3.66-3.41v-8.36Zm-11.68,7.36h0a7.38,7.38,0,1,1,7.36-7.4A7.37,7.37,0,0,1,274.32,580.13Z" transform="translate(-128.24 -552.84)"/><path class="cls-9" d="M274.31,567.81a4.95,4.95,0,1,0,5,5A4.94,4.94,0,0,0,274.31,567.81Z" transform="translate(-128.24 -552.84)"/><path class="cls-9" d="M288.1,552.84H260.25a6.06,6.06,0,0,0-6.06,6.06v27.85a6.06,6.06,0,0,0,6.06,6.07H288.1a6.08,6.08,0,0,0,6.07-6.07V558.9A6.06,6.06,0,0,0,288.1,552.84Zm.34,11.84q0,8.09,0,16.15a6,6,0,0,1-5.82,6.15h-.32l-8,0-8,0a6,6,0,0,1-6.16-5.82V564.7a6,6,0,0,1,6.1-6.18q8,0,16,0a6,6,0,0,1,6.13,5.8Z" transform="translate(-128.24 -552.84)"/><path class="cls-2" d="M358.24,565.37a7.38,7.38,0,1,0,0,14.76h0a7.38,7.38,0,0,0-.06-14.76Zm.07,12.33a4.95,4.95,0,1,1,4.93-4.94A4.95,4.95,0,0,1,358.31,577.7Z" transform="translate(-128.24 -552.84)"/><path class="cls-2" d="M366.28,558.52q-8,0-16,0a6,6,0,0,0-6.11,6.18v16.46a6,6,0,0,0,6.16,5.82l8,0,8,0h.31a6,6,0,0,0,5.83-6.15q0-8.07,0-16.15v-.36A6,6,0,0,0,366.28,558.52ZM370,581.13a3.54,3.54,0,0,1-3.65,3.41H349.93a3.53,3.53,0,0,1-3.35-3.69V564.35a3.5,3.5,0,0,1,3.63-3.38q8.07,0,16.14,0h.25a3.51,3.51,0,0,1,3.37,3.66Z" transform="translate(-128.24 -552.84)"/><path class="cls-1" d="M370,572.77v-8.14A3.52,3.52,0,0,0,366.6,561h-.25q-8.07,0-16.14,0a3.5,3.5,0,0,0-3.63,3.38v16.48a3.55,3.55,0,0,0,3.35,3.71h16.38a3.54,3.54,0,0,0,3.66-3.41,1.4,1.4,0,0,0,0-.29Zm-11.67,7.36h0a7.38,7.38,0,1,1,7.37-7.4A7.37,7.37,0,0,1,358.28,580.13Z" transform="translate(-128.24 -552.84)"/><path class="cls-1" d="M358.27,567.81a4.95,4.95,0,1,0,5,5A4.95,4.95,0,0,0,358.27,567.81Z" transform="translate(-128.24 -552.84)"/><path class="cls-1" d="M372.06,552.84H344.21a6.06,6.06,0,0,0-6.06,6.06v27.85a6.06,6.06,0,0,0,6.06,6.07h27.85a6.08,6.08,0,0,0,6.07-6.07V558.9A6.06,6.06,0,0,0,372.06,552.84Zm.35,11.84q0,8.09,0,16.15a6,6,0,0,1-5.83,6.15h-.31l-8,0-8,0a6,6,0,0,1-6.16-5.82V564.7a6,6,0,0,1,6.11-6.18q8,0,16,0a6,6,0,0,1,6.13,5.8Z" transform="translate(-128.24 -552.84)"/><g id="Group_186-3" data-name="Group 186"><path id="Path_126-3" data-name="Path 126" class="cls-12" d="M324.38,561q-8.07,0-16.15,0a3.49,3.49,0,0,0-3.62,3.38,1.31,1.31,0,0,0,0,.28v16.22a3.53,3.53,0,0,0,3.35,3.7h16.39a3.54,3.54,0,0,0,3.66-3.41V564.63a3.52,3.52,0,0,0-3.37-3.66h-.26m-8.07,19.18a7.39,7.39,0,1,1,7.37-7.42,7.4,7.4,0,0,1-7.37,7.42h0" transform="translate(-128.24 -552.84)"/><path id="Path_127-3" data-name="Path 127" class="cls-12" d="M316.3,567.81a5,5,0,1,0,5,5,5,5,0,0,0-5-5" transform="translate(-128.24 -552.84)"/><path id="Path_128-3" data-name="Path 128" class="cls-12" d="M336.17,586.77V558.9a6.06,6.06,0,0,0-6.07-6.06H302.24a6.06,6.06,0,0,0-6.07,6.06v27.87a6.07,6.07,0,0,0,6.07,6.07H330.1a6.07,6.07,0,0,0,6.07-6.07h0M324.3,587q-8,0-16,0a6,6,0,0,1-6.16-5.82V564.7a6,6,0,0,1,6.11-6.17q8,0,16,0a6,6,0,0,1,6.13,5.8,2,2,0,0,1,0,.35q0,8.09,0,16.16a6,6,0,0,1-5.82,6.15h-.32" transform="translate(-128.24 -552.84)"/></g><path class="cls-5" d="M442.21,565.37a7.38,7.38,0,1,0,0,14.76h0a7.38,7.38,0,0,0-.05-14.76Zm.06,12.33a4.95,4.95,0,1,1,4.93-4.94A5,5,0,0,1,442.27,577.7Z" transform="translate(-128.24 -552.84)"/><path class="cls-5" d="M450.24,558.52q-8,0-16,0a6,6,0,0,0-6.11,6.18v16.46a6,6,0,0,0,6.16,5.82l8,0,8,0h.31a6,6,0,0,0,5.83-6.15q0-8.07,0-16.15v-.36A6,6,0,0,0,450.24,558.52Zm3.7,22.61a3.55,3.55,0,0,1-3.66,3.41H433.9a3.53,3.53,0,0,1-3.36-3.69V564.35a3.5,3.5,0,0,1,3.63-3.38q8.07,0,16.14,0h.25a3.52,3.52,0,0,1,3.38,3.66Z" transform="translate(-128.24 -552.84)"/><path class="cls-6" d="M453.93,572.77v-8.14a3.51,3.51,0,0,0-3.36-3.66h-.26q-8.07,0-16.14,0a3.5,3.5,0,0,0-3.63,3.38,2.72,2.72,0,0,0,0,.28q0,8.1,0,16.2a3.53,3.53,0,0,0,3.35,3.71h16.37a3.53,3.53,0,0,0,3.66-3.41,1.4,1.4,0,0,0,0-.29Q453.95,576.8,453.93,572.77Zm-11.67,7.36h0a7.38,7.38,0,1,1,7.37-7.4A7.37,7.37,0,0,1,442.24,580.13Z" transform="translate(-128.24 -552.84)"/><path class="cls-6" d="M442.23,567.81a4.95,4.95,0,1,0,5,5A4.95,4.95,0,0,0,442.23,567.81Z" transform="translate(-128.24 -552.84)"/><path class="cls-6" d="M456,552.84H428.17a6.06,6.06,0,0,0-6.06,6.06v27.85a6.07,6.07,0,0,0,6.06,6.07H456a6.07,6.07,0,0,0,6.07-6.07V558.9A6.06,6.06,0,0,0,456,552.84Zm.35,11.84q0,8.09,0,16.15a6,6,0,0,1-5.83,6.15h-.31l-8,0-8,0a6,6,0,0,1-6.16-5.82V564.7a6,6,0,0,1,6.11-6.18q8,0,16,0a6,6,0,0,1,6.13,5.8Z" transform="translate(-128.24 -552.84)"/><g id="Group_186-4" data-name="Group 186"><path id="Path_126-4" data-name="Path 126" class="cls-3" d="M408.35,561q-8.09,0-16.16,0a3.5,3.5,0,0,0-3.62,3.38v16.5a3.53,3.53,0,0,0,3.35,3.7h16.39a3.54,3.54,0,0,0,3.66-3.41,2.81,2.81,0,0,0,0-.29V564.63A3.52,3.52,0,0,0,408.6,561h-.25m-8.08,19.18a7.39,7.39,0,1,1,7.37-7.42,7.38,7.38,0,0,1-7.37,7.42h0" transform="translate(-128.24 -552.84)"/><path id="Path_127-4" data-name="Path 127" class="cls-3" d="M400.26,567.81a5,5,0,1,0,5,5,5,5,0,0,0-5-5" transform="translate(-128.24 -552.84)"/><path id="Path_128-4" data-name="Path 128" class="cls-3" d="M420.13,586.77V558.9a6.06,6.06,0,0,0-6.07-6.06H386.2a6.06,6.06,0,0,0-6.07,6.06v27.87a6.07,6.07,0,0,0,6.07,6.07h27.86a6.07,6.07,0,0,0,6.07-6.07h0m-11.87.22q-8,0-16,0a6,6,0,0,1-6.17-5.82c0-.13,0-.25,0-.38q0-4,0-8.08v-8a6,6,0,0,1,6.11-6.17q8,0,16,0a6,6,0,0,1,6.13,5.8v16.51a6,6,0,0,1-5.83,6.15h-.32" transform="translate(-128.24 -552.84)"/></g></svg>